<?xml version="1.0" encoding="utf-8"?>
<!-- Generator: Adobe Illustrator 24.2.0, SVG Export Plug-In . SVG Version: 6.00 Build 0)  -->
<svg version="1.1" id="Capa_1" xmlns="http://www.w3.org/2000/svg" xmlns:xlink="http://www.w3.org/1999/xlink" x="0px" y="0px"
	 viewBox="0 0 45.4 45.4" style="enable-background:new 0 0 45.4 45.4;" xml:space="preserve">
<style type="text/css">
	.st0{fill:#FFFFFF;}
</style>
<g>
	<path class="st0" d="M41.3,18.6H26.8V4.1C26.8,1.9,25,0,22.7,0s-4.1,1.9-4.1,4.1v14.4H4.1c-2.3,0-4.1,1.9-4.1,4.1
		c0,1.1,0.5,2.2,1.2,2.9C2,26.4,3,26.9,4.1,26.9h14.5v14.4c0,1.1,0.5,2.2,1.2,2.9c0.7,0.7,1.8,1.2,2.9,1.2c2.3,0,4.1-1.9,4.1-4.1
		V26.9h14.4c2.3,0,4.1-1.9,4.1-4.1C45.4,20.4,43.5,18.6,41.3,18.6z"/>
</g>
</svg>
